{"title":"Annabelle 2014 HC HDRIP XVID AC3 ACAB","uid":11238294,"size":1694838956,"categoryP":"video","categoryS":"movies","magnet":"?xt=urn:btih:abc7bbd41e6f5158526d6ddbcee06e6e1042a9e0&amp;dn=Annabelle+2014+HC+HDRIP+XVID+AC3+ACAB&amp;tr=udp%3A%2F%2Ftracker.openbittorrent.com%3A80&amp;tr=udp%3A%2F%2Fopen.demonii.com%3A1337&amp;tr=udp%3A%2F%2Ftracker.coppersurfer.tk%3A6969&amp;tr=udp%3A%2F%2Fexodus.desync.com%3A6969","seeders":4,"leechers":0,"uploader":"xxxlavalxxx","files":-1,"time":1413631541,"description":"[IMG]http://i.imgur.com/wAYoGcD.png[/IMG]\n &lt;a href=&quot;\nhttp://www.imdb.com/title/tt3322940/&quot; rel=&quot;nofollow&quot; target=&quot;_NEW&quot;&gt;\nhttp://www.imdb.com/title/tt3322940/&lt;/a&gt;\n\n\nA couple begin to experience terrifying supernatural occurrences involving a vintage doll shortly after their home is invaded by satanic cultists.\n\nDirector: John R. Leonetti\nWriter: Gary Dauberman\nStars: Ward Horton, Annabelle Wallis, Alfre Woodard\nGenres: Horror\nCountry: USA\nLanguage: English\n\n\nFormat                                   : AVI\nFormat/Info                              : Audio Video Interleave\nFile size                                : 1.54 GiB\nDuration                                 : 1h 38mn\nOverall bit rate                         : 2 236 Kbps\n\nVideo\nID                                       : 0\nFormat                                   : MPEG-4 Visual\nFormat profile                           : Advanced Simple@L5\nFormat settings, BVOP                    : 2\nFormat settings, QPel                    : No\nFormat settings, GMC                     : No warppoints\nFormat settings, Matrix                  : Default (H.263)\nMuxing mode                              : Packed bitstream\nCodec ID                                 : XVID\nCodec ID/Hint                            : XviD\nDuration                                 : 1h 38mn\nBit rate                                 : 1 972 Kbps\nWidth                                    : 720 pixels\nHeight                                   : 304 pixels\nDisplay aspect ratio                     : 2.35:1\nFrame rate                               : 23.976 fps\nColor space                              : YUV\nChroma subsampling                       : 4:2:0\nBit depth                                : 8 bits\nScan type                                : Progressive\nCompression mode                         : Lossy\nBits/(Pixel*Frame)                       : 0.376\nStream size                              : 1.36 GiB (88%)\nWriting library                          : XviD 65\n\nAudio\nID                                       : 1\nFormat                                   : AC-3\nFormat/Info                              : Audio Coding 3\nMode extension                           : CM (complete main)\nFormat settings, Endianness              : Big\nCodec ID                                 : 2000\nDuration                                 : 1h 38mn\nBit rate mode                            : Constant\nBit rate                                 : 256 Kbps\nChannel count                            : 2 channels\nChannel positions                        : Front: L R\nSampling rate                            : 44.1 KHz\nBit depth                                : 16 bits\nCompression mode                         : Lossy\nStream size                              : 181 MiB (11%)\nAlignment                                : Aligned on interleaves\nInterleave, duration                     : 70 ms (1.67 video frames)\nInterleave, preload duration             : 208 ms\nTitle                                    : English\n\n\nscreens\n &lt;a href=&quot;\nhttp://i.imgur.com/L3RC0D7.png&quot; rel=&quot;nofollow&quot; target=&quot;_NEW&quot;&gt;\nhttp://i.imgur.com/L3RC0D7.png&lt;/a&gt; &lt;a href=&quot;\nhttp://i.imgur.com/OUS3CuQ.png&quot; rel=&quot;nofollow&quot; target=&quot;_NEW&quot;&gt;\nhttp://i.imgur.com/OUS3CuQ.png&lt;/a&gt; &lt;a href=&quot;\nhttp://i.imgur.com/cVBmVgb.png&quot; rel=&quot;nofollow&quot; target=&quot;_NEW&quot;&gt;\nhttp://i.imgur.com/cVBmVgb.png&lt;/a&gt; &lt;a href=&quot;\nhttp://i.imgur.com/P9G6CMp.png&quot; rel=&quot;nofollow&quot; target=&quot;_NEW&quot;&gt;\nhttp://i.imgur.com/P9G6CMp.png&lt;/a&gt;","torrent":{"xt":"urn:btih:abc7bbd41e6f5158526d6ddbcee06e6e1042a9e0","amp;dn":"Annabelle+2014+HC+HDRIP+XVID+AC3+ACAB","amp;tr":["udp%3A%2F%2Ftracker.openbittorrent.com%3A80","udp%3A%2F%2Fopen.demonii.com%3A1337","udp%3A%2F%2Ftracker.coppersurfer.tk%3A6969","udp%3A%2F%2Fexodus.desync.com%3A6969"],"infoHash":"abc7bbd41e6f5158526d6ddbcee06e6e1042a9e0","infoHashBuffer":{"type":"Buffer","data":[171,199,187,212,30,111,81,88,82,109,109,219,206,224,110,110,16,66,169,224]},"announce":[],"urlList":[]}}